# xmcd CD database file
#
# Track frame offsets:
#	150
#	8342
#	29567
#	50985
#	71197
#	82952
#	104380
#	118360
#	138040
#	156790
#	171545
#
# Disc length: 2574 seconds
#
# Revision: 3
# Processed by: cddbd v1.5.2PL0 Copyright (c) Steve Scherf et al.
# Submitted via: CDex 1.70beta3
#
DISCID=970a0c0b
DTITLE=PINK CLOUD - INDEX
DYEAR=1998
DGENRE=J-Rock
TTITLE0=ALL MY LOVE
TTITLE1=BLUE CLOUD
TTITLE2=DRIVE ME NUTS
TTITLE3=FREEDOM
TTITLE4=号外 (GOGAI)
TTITLE5=HALFRAIN
TTITLE6=LET'S GO BACK HOME
TTITLE7=MAYBE SOME NIGHT
TTITLE8=MY DELICATE ONE
TTITLE9=PASSING TIME
TTITLE10=UNCLE JACK
EXTD=YEAR: 1998
EXTT0=
EXTT1=
EXTT2=
EXTT3=
EXTT4=
EXTT5=
EXTT6=
EXTT7=
EXTT8=
EXTT9=
EXTT10=
PLAYORDER=
